<svg width="95" height="95" viewBox="0 0 95 95" fill="none" xmlns="http://www.w3.org/2000/svg"><rect width="95" height="95" fill="#2A3B63"/><path d="M16.84 53.7308C16.1333 53.7308 15.5267 53.6308 15.02 53.4308C14.5267 53.2308 14.1467 52.8775 13.88 52.3708C13.6133 51.8642 13.48 51.1508 13.48 50.2308V49.5308C13.8933 49.5308 14.3 49.5308 14.7 49.5308C15.1 49.5308 15.5 49.5308 15.9 49.5308V50.4308C15.9 50.9242 15.94 51.3042 16.02 51.5708C16.1 51.8242 16.2133 52.0042 16.36 52.1108C16.5067 52.2042 16.68 52.2508 16.88 52.2508C17.1867 52.2508 17.4267 52.1442 17.6 51.9308C17.7867 51.7042 17.88 51.2708 17.88 50.6308C17.88 50.1375 17.8 49.7708 17.64 49.5308C17.4933 49.2775 17.2533 49.0775 16.92 48.9308C16.5867 48.7708 16.16 48.5775 15.64 48.3508C15.1733 48.1508 14.7867 47.9108 14.48 47.6308C14.1733 47.3508 13.9467 46.9975 13.8 46.5708C13.6533 46.1442 13.58 45.6242 13.58 45.0108C13.58 44.2375 13.68 43.6108 13.88 43.1308C14.0933 42.6508 14.44 42.3042 14.92 42.0908C15.4133 41.8642 16.0733 41.7508 16.9 41.7508C17.9667 41.7508 18.78 41.9842 19.34 42.4508C19.9133 42.9042 20.2 43.5908 20.2 44.5108V45.9308C19.8133 45.9308 19.4267 45.9308 19.04 45.9308C18.6667 45.9308 18.28 45.9308 17.88 45.9308V45.2108C17.88 44.6108 17.8067 44.1908 17.66 43.9508C17.5267 43.7108 17.28 43.5908 16.92 43.5908C16.5733 43.5908 16.3267 43.6975 16.18 43.9108C16.0333 44.1242 15.96 44.4708 15.96 44.9508C15.96 45.3908 16.0467 45.7375 16.22 45.9908C16.4067 46.2308 16.64 46.4175 16.92 46.5508C17.2 46.6708 17.5 46.7908 17.82 46.9108C18.4067 47.1375 18.8867 47.3708 19.26 47.6108C19.6333 47.8375 19.9067 48.1575 20.08 48.5708C20.2533 48.9708 20.34 49.5508 20.34 50.3108C20.34 51.1642 20.1933 51.8442 19.9 52.3508C19.62 52.8442 19.2133 53.1975 18.68 53.4108C18.16 53.6242 17.5467 53.7308 16.84 53.7308ZM25.2925 53.8308C24.8125 53.8308 24.3725 53.7975 23.9725 53.7308C23.5725 53.6642 23.2258 53.5242 22.9325 53.3108C22.6392 53.0975 22.4125 52.7842 22.2525 52.3708C22.0925 51.9442 22.0125 51.3708 22.0125 50.6508V41.7708H24.3325V51.3108C24.3325 51.5908 24.3725 51.8175 24.4525 51.9908C24.5458 52.1508 24.6658 52.2575 24.8125 52.3108C24.9592 52.3642 25.1192 52.3908 25.2925 52.3908C25.4525 52.3908 25.6058 52.3642 25.7525 52.3108C25.8992 52.2575 26.0125 52.1508 26.0925 51.9908C26.1858 51.8175 26.2325 51.5908 26.2325 51.3108V41.7708H28.5525V50.6508C28.5525 51.3575 28.4725 51.9242 28.3125 52.3508C28.1525 52.7775 27.9258 53.0975 27.6325 53.3108C27.3525 53.5242 27.0058 53.6642 26.5925 53.7308C26.1925 53.7975 25.7592 53.8308 25.2925 53.8308ZM30.597 53.5908V41.7708H34.797C35.5837 41.7708 36.177 41.9508 36.577 42.3108C36.9904 42.6575 37.197 43.1442 37.197 43.7708V45.8108C37.197 46.3442 37.1304 46.8442 36.997 47.3108C36.8637 47.7642 36.6237 48.1308 36.277 48.4108C35.9304 48.6908 35.4304 48.8308 34.777 48.8308H33.017V53.5908H30.597ZM33.017 47.5508H33.917C34.237 47.5508 34.477 47.3975 34.637 47.0908C34.797 46.7842 34.877 46.2775 34.877 45.5708V44.7708C34.877 44.1442 34.8104 43.6975 34.677 43.4308C34.5437 43.1642 34.3504 43.0308 34.097 43.0308H33.017V47.5508ZM38.8486 53.5908V41.7708H44.2886V43.4108H41.2686V46.5708H43.8286V48.3908H41.2686V51.9908H44.2886V53.5908H38.8486ZM45.9283 53.5908V41.7708H50.2483C51.0349 41.7708 51.6283 41.9508 52.0283 42.3108C52.4283 42.6575 52.6283 43.1442 52.6283 43.7708V45.6108C52.6283 46.2375 52.4616 46.7642 52.1283 47.1908C51.7949 47.6175 51.2749 47.8642 50.5683 47.9308C51.0216 47.9975 51.3416 48.1508 51.5283 48.3908C51.7283 48.6175 51.9016 48.9908 52.0483 49.5108L53.1683 53.5908H50.5883L49.7283 49.6708C49.6483 49.3508 49.5549 49.0842 49.4483 48.8708C49.3549 48.6442 49.2149 48.5308 49.0283 48.5308H48.3483V53.5908H45.9283ZM48.3483 46.9108H49.3083C49.6816 46.9108 49.9483 46.8108 50.1083 46.6108C50.2683 46.3975 50.3483 46.0642 50.3483 45.6108V44.1908C50.3483 43.7642 50.2749 43.4642 50.1283 43.2908C49.9816 43.1175 49.7549 43.0308 49.4483 43.0308H48.3483V46.9108ZM57.2067 53.8108C56.7534 53.8108 56.3267 53.7375 55.9267 53.5908C55.5401 53.4442 55.2201 53.1575 54.9667 52.7308C54.7134 52.2908 54.5867 51.6375 54.5867 50.7708V44.2908C54.5867 43.5975 54.7201 43.0575 54.9867 42.6708C55.2667 42.2842 55.6534 42.0175 56.1467 41.8708C56.6401 41.7108 57.2134 41.6308 57.8667 41.6308C58.5201 41.6308 59.0934 41.7108 59.5867 41.8708C60.0934 42.0175 60.4867 42.2842 60.7667 42.6708C61.0601 43.0575 61.2067 43.5975 61.2067 44.2908V45.9508H58.9467V44.1708C58.9467 43.8508 58.9001 43.6108 58.8067 43.4508C58.7267 43.2775 58.6134 43.1642 58.4667 43.1108C58.3201 43.0575 58.1401 43.0308 57.9267 43.0308C57.7267 43.0308 57.5467 43.0575 57.3867 43.1108C57.2401 43.1642 57.1201 43.2775 57.0267 43.4508C56.9467 43.6108 56.9067 43.8508 56.9067 44.1708V51.3308C56.9067 51.6375 56.9467 51.8775 57.0267 52.0508C57.1201 52.2108 57.2401 52.3242 57.3867 52.3908C57.5467 52.4442 57.7267 52.4708 57.9267 52.4708C58.2334 52.4708 58.4801 52.3775 58.6667 52.1908C58.8534 52.0042 58.9467 51.7175 58.9467 51.3308V48.9708H57.9867V47.6508H61.2067V53.5908H59.4667L59.3467 52.6708C59.3201 52.7108 59.2934 52.7508 59.2667 52.7908C59.2401 52.8308 59.2201 52.8642 59.2067 52.8908C59.0734 53.1175 58.8467 53.3308 58.5267 53.5308C58.2201 53.7175 57.7801 53.8108 57.2067 53.8108ZM64.6555 53.5908V48.5708L62.4355 41.7708H64.7555L65.7755 45.3108L65.9155 46.0708L66.0555 45.3108L67.1555 41.7708H69.2755L66.9755 48.6908V53.5908H64.6555ZM70.722 53.5908V41.7708H73.622L75.242 49.4108L76.882 41.7708H79.762V53.5908H77.722V44.7508L76.022 53.5908H74.442L72.762 44.7508V53.5908H70.722Z" fill="white"/></svg>